# xmcd CD database file
#
# Track frame offsets:
#	150
#	16030
#	30682
#
# Disc length: 649 seconds
#
# Revision: 0
# Processed by: cddbd v1.5PL3 Copyright (c) Steve Scherf et al.
# Submitted via: CDex 1.51
#
DISCID=15028703
DTITLE=太陽族 - 僕らは・・・
DYEAR=2002
DGENRE=Punk Rock
TTITLE0=僕らは・・・
TTITLE1=よきもわるきも
TTITLE2=戦友-ライブバージョン-
EXTD=YEAR: 2002
EXTT0=
EXTT1=
EXTT2=
PLAYORDER=
